HIERARCHY
ROOT Hips
{
	OFFSET 0.000000 83.214638 0.000000
	CHANNELS 6 Xposition Yposition Zposition Xrotation Yrotation Zrotation
	JOINT Pelvis
	{
		OFFSET 0.000000 0.000000 0.000000
		CHANNELS 3 Xrotation Yrotation Zrotation
		JOINT LeftUpLeg
		{
			OFFSET 8.479700 -4.795502 -0.379100
			CHANNELS 3 Xrotation Yrotation Zrotation
			JOINT LeftLeg
			{
				OFFSET 0.024144 -32.555107 0.112900
				CHANNELS 3 Xrotation Yrotation Zrotation
				JOINT LeftFoot
				{
					OFFSET -0.024144 -32.638630 -3.012600
					CHANNELS 3 Xrotation Yrotation Zrotation
					JOINT LeftToeBase
					{
						OFFSET 0.970200 -13.225400 11.864200
						CHANNELS 3 Xrotation Yrotation Zrotation
						End Site
						{
							OFFSET 0.000000 12.319262 0.000000
						}
					}
					JOINT LFootTongue
					{
						OFFSET 1.142400 -1.059800 6.665200
						CHANNELS 3 Xrotation Yrotation Zrotation
						End Site
						{
							OFFSET 0.000000 12.319262 0.000000
						}
					}
				}
				JOINT LeftPantLeg
				{
					OFFSET 0.918482 -16.533964 -2.284700
					CHANNELS 3 Xrotation Yrotation Zrotation
					End Site
					{
						OFFSET 0.350399 24.744368 0.000000
					}
				}
			}
		}
		JOINT RightUpLeg
		{
			OFFSET -8.479700 -4.795502 -0.379100
			CHANNELS 3 Xrotation Yrotation Zrotation
			JOINT RightLeg
			{
				OFFSET -0.023144 -32.555092 0.112900
				CHANNELS 3 Xrotation Yrotation Zrotation
				JOINT RightFoot
				{
					OFFSET 0.023144 -32.638641 -3.012700
					CHANNELS 3 Xrotation Yrotation Zrotation
					JOINT RightToeBase
					{
						OFFSET -0.970200 -13.225400 11.864200
						CHANNELS 3 Xrotation Yrotation Zrotation
						End Site
						{
							OFFSET 0.000000 12.319244 0.000000
						}
					}
					JOINT RFootTongue
					{
						OFFSET -1.142200 -1.059800 6.665200
						CHANNELS 3 Xrotation Yrotation Zrotation
						End Site
						{
							OFFSET 0.000000 12.319243 0.000000
						}
					}
				}
				JOINT RightPantLeg
				{
					OFFSET -0.919482 -16.533978 -2.284800
					CHANNELS 3 Xrotation Yrotation Zrotation
					End Site
					{
						OFFSET -0.350400 24.744419 0.000000
					}
				}
			}
		}
	}
	JOINT Spine
	{
		OFFSET 0.000000 7.722000 1.166200
		CHANNELS 3 Xrotation Yrotation Zrotation
		JOINT Spine1
		{
			OFFSET 0.000000 12.024101 0.248800
			CHANNELS 3 Xrotation Yrotation Zrotation
			JOINT Spine2
			{
				OFFSET 0.000000 11.502998 -0.491200
				CHANNELS 3 Xrotation Yrotation Zrotation
				JOINT Neck
				{
					OFFSET 0.000000 18.430702 -3.123100
					CHANNELS 3 Xrotation Yrotation Zrotation
					JOINT Head
					{
						OFFSET 0.000000 9.051102 1.034000
						CHANNELS 3 Xrotation Yrotation Zrotation
						JOINT HairB
						{
							OFFSET 0.208400 24.786102 24.822300
							CHANNELS 3 Xrotation Yrotation Zrotation
							End Site
							{
								OFFSET 0.000000 32.263779 0.000000
							}
						}
						JOINT HairA
						{
							OFFSET -7.081100 24.428299 23.196600
							CHANNELS 3 Xrotation Yrotation Zrotation
							End Site
							{
								OFFSET 0.000000 32.263779 0.000000
							}
						}
						JOINT Hat
						{
							OFFSET 16.728800 15.048294 -15.439601
							CHANNELS 3 Xrotation Yrotation Zrotation
							End Site
							{
								OFFSET 0.000000 32.263779 0.000000
							}
						}
					}
				}
				JOINT LeftShoulder
				{
					OFFSET 6.197800 13.665199 -4.064700
					CHANNELS 3 Xrotation Yrotation Zrotation
					JOINT LeftArm
					{
						OFFSET 7.778100 -0.187103 -1.709300
						CHANNELS 3 Xrotation Yrotation Zrotation
						JOINT LeftForeArm
						{
							OFFSET 22.049376 0.000000 0.000000
							CHANNELS 3 Xrotation Yrotation Zrotation
							JOINT LeftHand
							{
								OFFSET 23.009392 0.000000 0.000000
								CHANNELS 3 Xrotation Yrotation Zrotation
								JOINT LeftHandThumb1
								{
									OFFSET 3.507191 -2.063065 3.133727
									CHANNELS 3 Xrotation Yrotation Zrotation
									JOINT LeftHandThumb2
									{
										OFFSET 3.101337 -1.790558 1.790558
										CHANNELS 3 Xrotation Yrotation Zrotation
										JOINT LeftHandThumb3
										{
											OFFSET 3.058640 -1.765907 1.765906
											CHANNELS 3 Xrotation Yrotation Zrotation
											End Site
											{
												OFFSET -0.415260 3.926476 -0.049563
											}
										}
									}
								}
								JOINT LeftHandIndex1
								{
									OFFSET 11.334419 -0.901459 3.706815
									CHANNELS 3 Xrotation Yrotation Zrotation
									JOINT LeftHandIndex2
									{
										OFFSET 3.283112 0.000000 0.000000
										CHANNELS 3 Xrotation Yrotation Zrotation
										JOINT LeftHandIndex3
										{
											OFFSET 3.323853 0.000000 0.000000
											CHANNELS 3 Xrotation Yrotation Zrotation
											End Site
											{
												OFFSET -1.135597 3.097809 0.402452
											}
										}
									}
								}
								JOINT LeftHandMiddle1
								{
									OFFSET 11.335861 0.000000 0.000000
									CHANNELS 3 Xrotation Yrotation Zrotation
									JOINT LeftHandMiddle2
									{
										OFFSET 3.410492 0.000000 0.000000
										CHANNELS 3 Xrotation Yrotation Zrotation
										JOINT LeftHandMiddle3
										{
											OFFSET 3.312172 0.000000 0.000000
											CHANNELS 3 Xrotation Yrotation Zrotation
											End Site
											{
												OFFSET -1.150200 3.080154 0.400270
											}
										}
									}
								}
								JOINT LeftHandRing1
								{
									OFFSET 11.514786 -0.013176 -3.003090
									CHANNELS 3 Xrotation Yrotation Zrotation
									JOINT LeftHandRing2
									{
										OFFSET 3.053307 0.000000 0.000000
										CHANNELS 3 Xrotation Yrotation Zrotation
										JOINT LeftHandRing3
										{
											OFFSET 3.295807 0.000000 0.000000
											CHANNELS 3 Xrotation Yrotation Zrotation
											End Site
											{
												OFFSET -1.281006 3.013344 0.375733
											}
										}
									}
								}
								JOINT LeftHandPinky1
								{
									OFFSET 10.518692 -0.960396 -5.730441
									CHANNELS 3 Xrotation Yrotation Zrotation
									JOINT LeftHandPinky2
									{
										OFFSET 2.861649 0.000000 0.000000
										CHANNELS 3 Xrotation Yrotation Zrotation
										JOINT LeftHandPinky3
										{
											OFFSET 2.863380 0.000000 0.000000
											CHANNELS 3 Xrotation Yrotation Zrotation
											End Site
											{
												OFFSET -0.843597 2.711159 0.369971
											}
										}
									}
								}
							}
							JOINT LSleeve
							{
								OFFSET 6.676277 -0.344902 -1.011730
								CHANNELS 3 Xrotation Yrotation Zrotation
								End Site
								{
									OFFSET 0.000000 14.885353 0.000000
								}
							}
						}
					}
				}
				JOINT RightShoulder
				{
					OFFSET -6.197800 13.665199 -4.064700
					CHANNELS 3 Xrotation Yrotation Zrotation
					JOINT RightArm
					{
						OFFSET -7.778100 -0.187103 -1.709300
						CHANNELS 3 Xrotation Yrotation Zrotation
						JOINT RightForeArm
						{
							OFFSET -22.049376 0.000000 0.000000
							CHANNELS 3 Xrotation Yrotation Zrotation
							JOINT RightHand
							{
								OFFSET -23.009392 0.000000 0.000000
								CHANNELS 3 Xrotation Yrotation Zrotation
								JOINT RightHandThumb1
								{
									OFFSET -3.507191 -2.063065 3.133727
									CHANNELS 3 Xrotation Yrotation Zrotation
									JOINT RightHandThumb2
									{
										OFFSET -3.101337 -1.790558 1.790558
										CHANNELS 3 Xrotation Yrotation Zrotation
										JOINT RightHandThumb3
										{
											OFFSET -3.058640 -1.765907 1.765906
											CHANNELS 3 Xrotation Yrotation Zrotation
											End Site
											{
												OFFSET 0.415260 3.926476 -0.049563
											}
										}
									}
								}
								JOINT RightHandIndex1
								{
									OFFSET -11.334419 -0.901459 3.706815
									CHANNELS 3 Xrotation Yrotation Zrotation
									JOINT RightHandIndex2
									{
										OFFSET -3.283112 0.000000 0.000000
										CHANNELS 3 Xrotation Yrotation Zrotation
										JOINT RightHandIndex3
										{
											OFFSET -3.323853 0.000000 0.000000
											CHANNELS 3 Xrotation Yrotation Zrotation
											End Site
											{
												OFFSET 1.135597 3.097809 0.402452
											}
										}
									}
								}
								JOINT RightHandMiddle1
								{
									OFFSET -11.335861 0.000000 0.000000
									CHANNELS 3 Xrotation Yrotation Zrotation
									JOINT RightHandMiddle2
									{
										OFFSET -3.410492 0.000000 0.000000
										CHANNELS 3 Xrotation Yrotation Zrotation
										JOINT RightHandMiddle3
										{
											OFFSET -3.312172 0.000000 0.000000
											CHANNELS 3 Xrotation Yrotation Zrotation
											End Site
											{
												OFFSET 1.150200 3.080154 0.400270
											}
										}
									}
								}
								JOINT RightHandRing1
								{
									OFFSET -11.514786 -0.013176 -3.003090
									CHANNELS 3 Xrotation Yrotation Zrotation
									JOINT RightHandRing2
									{
										OFFSET -3.053307 0.000000 0.000000
										CHANNELS 3 Xrotation Yrotation Zrotation
										JOINT RightHandRing3
										{
											OFFSET -3.295807 0.000000 0.000000
											CHANNELS 3 Xrotation Yrotation Zrotation
											End Site
											{
												OFFSET 1.281006 3.013344 0.375733
											}
										}
									}
								}
								JOINT RightHandPinky1
								{
									OFFSET -10.518692 -0.960396 -5.730441
									CHANNELS 3 Xrotation Yrotation Zrotation
									JOINT RightHandPinky2
									{
										OFFSET -2.861649 0.000000 0.000000
										CHANNELS 3 Xrotation Yrotation Zrotation
										JOINT RightHandPinky3
										{
											OFFSET -2.863380 0.000000 0.000000
											CHANNELS 3 Xrotation Yrotation Zrotation
											End Site
											{
												OFFSET 0.843597 2.711159 0.369971
											}
										}
									}
								}
							}
							JOINT RSleeve
							{
								OFFSET -6.676277 -0.344902 -1.011730
								CHANNELS 3 Xrotation Yrotation Zrotation
								End Site
								{
									OFFSET 0.000000 14.885353 0.000000
								}
							}
						}
					}
				}
				JOINT Backpack
				{
					OFFSET 0.000000 -2.471497 36.677502
					CHANNELS 3 Xrotation Yrotation Zrotation
					End Site
					{
						OFFSET 0.000000 20.427315 0.000000
					}
				}
				JOINT Hood
				{
					OFFSET 0.000000 18.754097 -10.431000
					CHANNELS 3 Xrotation Yrotation Zrotation
					JOINT Hood1
					{
						OFFSET 0.000000 -5.011002 -7.685901
						CHANNELS 3 Xrotation Yrotation Zrotation
						End Site
						{
							OFFSET 0.000000 9.175140 0.000000
						}
					}
				}
				JOINT LHoodieString
				{
					OFFSET 5.250500 16.397697 3.089900
					CHANNELS 3 Xrotation Yrotation Zrotation
					JOINT LHoodieString1
					{
						OFFSET 0.257700 -6.364304 3.694600
						CHANNELS 3 Xrotation Yrotation Zrotation
						JOINT LHoodieString2
						{
							OFFSET 0.000000 -9.643799 2.679100
							CHANNELS 3 Xrotation Yrotation Zrotation
							End Site
							{
								OFFSET 0.000000 10.009018 0.000000
							}
						}
					}
				}
				JOINT RHoodieString
				{
					OFFSET -5.250500 16.397697 3.089900
					CHANNELS 3 Xrotation Yrotation Zrotation
					JOINT RHoodieString1
					{
						OFFSET -0.257700 -6.364304 3.694600
						CHANNELS 3 Xrotation Yrotation Zrotation
						JOINT RHoodieString2
						{
							OFFSET 0.000000 -9.643799 2.679100
							CHANNELS 3 Xrotation Yrotation Zrotation
							End Site
							{
								OFFSET 0.000000 10.009018 0.000000
							}
						}
					}
				}
			}
			JOINT LBackpack_Strap
			{
				OFFSET 15.223200 -7.719803 -6.610900
				CHANNELS 3 Xrotation Yrotation Zrotation
				End Site
				{
					OFFSET 0.000000 16.040596 0.000000
				}
			}
			JOINT RBackpack_Strap
			{
				OFFSET -15.223000 -7.719803 -6.610900
				CHANNELS 3 Xrotation Yrotation Zrotation
				End Site
				{
					OFFSET 0.000000 16.040596 0.000000
				}
			}
		}
	}
	JOINT BoyFacialAnim_Joint
	{
		OFFSET 1.000000 -82.208099 -1.550900
		CHANNELS 3 Xrotation Yrotation Zrotation
		End Site
		{
			OFFSET 0.000000 30.012791 0.000000
		}
	}
}
MOTION
Frames: 4
Frame Time: 0.033333
-4.928532 119.758743 -6.115923 -21.986739 -34.928044 2.954635 -0.000000 -0.000000 -0.000001 -82.096640 1.798525 19.498928 123.391138 -0.932925 -0.208033 7.693260 -0.249401 -16.313285 0.000003 0.000000 0.000000 0.000003 0.000000 0.000000 0.000001 -0.000000 0.000001 -79.317033 0.551987 -25.103710 126.764431 14.473779 0.926089 38.795095 6.340491 22.872062 0.000001 0.000003 0.000000 0.000001 0.000003 0.000000 -0.000001 -0.000000 -0.000002 14.756065 -1.266808 -5.173577 29.514538 -1.721865 -6.705808 29.514545 -1.721863 -6.705819 1.865594 4.451086 -6.518792 2.113170 7.328642 1.554789 0.000001 0.000001 0.000001 0.000001 0.000001 0.000001 0.000001 0.000001 0.000001 -4.113487 1.671409 0.666201 -27.705786 8.108622 5.973634 -11.421889 -18.011680 -9.829115 -3.601920 -16.375604 34.301668 9.163781 4.814008 -5.498993 -0.331954 0.038625 0.784178 0.000001 -0.000003 0.000002 -0.901956 -6.981015 -3.808558 0.039698 0.802205 -16.419355 -0.000000 -0.000001 -0.000004 1.944746 9.683706 -14.540148 -0.451881 -1.566362 -21.881554 0.000003 -0.000005 -0.000001 2.605735 14.896820 -31.345712 -0.577239 -2.712291 -32.012181 -0.000001 0.000000 0.000005 4.170455 18.495054 -34.987856 -0.706873 -5.788602 -39.373582 0.000002 -0.000001 0.000003 0.000001 -0.000003 0.000001 -5.378346 -12.971008 -1.368819 -23.271037 -14.249979 -1.670367 -4.396311 27.833082 3.351015 1.715215 5.883107 -37.145441 -8.895974 -4.903156 -0.383634 7.901976 -19.194138 -2.855096 -0.000000 0.000002 -0.000002 -1.085530 -1.215532 4.525227 0.137241 -1.117247 16.942479 0.000001 0.000000 0.000002 -0.666606 -2.900982 12.731258 -0.651064 1.817252 30.578736 -0.000001 -0.000000 0.000001 2.425022 -7.404173 21.763447 -0.989146 3.764255 37.431028 0.000001 -0.000001 0.000002 3.481061 -10.055120 24.322772 -1.458330 7.871807 41.091873 -0.000003 -0.000002 -0.000000 0.000001 0.000001 -0.000001 0.000002 0.000001 -0.000001 0.000002 0.000001 -0.000001 0.000002 0.000001 -0.000001 0.000002 0.000001 -0.000001 0.000002 0.000001 -0.000001 0.000001 0.000000 0.000000 0.000002 0.000001 -0.000001 0.000002 0.000001 -0.000001 0.000001 0.000000 0.000000 0.000002 -0.000001 -0.000000 0.000002 -0.000001 -0.000000 -0.000000 -0.000000 -0.000001 
-4.961387 117.457932 -5.907751 -21.647009 -33.438332 2.538246 0.000001 -0.000002 0.000000 -80.586383 1.752059 19.111689 122.907902 -1.369843 -0.001312 7.856440 -0.325662 -13.330254 0.000001 0.000000 -0.000000 0.000001 0.000000 -0.000000 -0.000004 0.000001 -0.000002 -77.269117 -0.614320 -23.785601 126.382679 12.810874 0.696694 38.812973 6.221051 24.109526 0.000001 0.000002 0.000002 0.000001 0.000002 0.000002 -0.000000 -0.000001 -0.000001 14.532653 -1.324664 -4.794663 29.077772 -1.827531 -5.875444 29.077772 -1.827538 -5.875441 1.156483 4.875954 -7.207814 2.831724 8.100091 2.623045 -0.000004 -0.000000 0.000001 -0.000004 -0.000000 0.000001 -0.000004 -0.000000 0.000001 -4.114228 0.278028 -0.246467 -29.321633 3.999155 9.379571 -7.134347 -19.074077 -9.278864 -0.655160 -13.206371 37.838739 8.862684 4.321163 -5.568163 -0.331956 0.038625 0.784178 0.000000 0.000002 -0.000002 -0.916462 -7.179912 -3.800048 0.039699 0.802200 -16.419351 0.000001 0.000001 -0.000001 1.877390 9.408917 -14.081235 -0.437016 -1.523319 -21.462842 0.000000 -0.000001 0.000000 2.585336 14.858201 -30.656587 -0.555206 -2.676858 -31.329651 -0.000001 0.000003 -0.000002 4.182551 18.514592 -34.251712 -0.696903 -5.776163 -38.635470 -0.000001 0.000002 0.000002 0.000002 0.000000 -0.000001 -5.572808 -13.046408 -2.190275 -24.382240 -12.340180 -2.329106 -0.121621 29.936511 1.313651 7.044465 4.272586 -35.142385 -9.109303 -4.413388 -0.329548 7.685388 -18.703396 -2.850578 -0.000001 0.000001 -0.000001 -1.115922 -0.919068 4.511204 0.137239 -1.117245 16.942477 0.000000 -0.000001 0.000002 -0.661581 -2.923415 12.422327 -0.638991 1.789997 30.258383 0.000005 -0.000000 -0.000000 2.442159 -7.445508 21.272044 -0.963838 3.729968 36.932513 0.000003 0.000001 -0.000001 3.655866 -10.279382 23.857984 -1.412664 7.818790 40.176764 0.000002 -0.000001 -0.000002 -0.000002 0.000002 -0.000001 -0.000002 -0.000001 -0.000000 -0.000002 -0.000001 -0.000000 -0.000002 -0.000001 -0.000000 -0.000002 -0.000001 -0.000000 -0.000002 -0.000001 -0.000000 -0.000002 0.000000 -0.000000 -0.000002 -0.000001 -0.000000 -0.000002 -0.000001 -0.000000 -0.000002 0.000000 -0.000000 0.000001 0.000002 -0.000001 0.000001 0.000002 -0.000001 0.000001 -0.000002 0.000000 
-4.616576 114.857552 -5.427465 -18.757783 -32.188489 3.595336 -0.000000 0.000000 0.000000 -77.048188 3.260789 17.813755 117.670977 -3.952045 -0.383714 7.874149 -0.463811 -11.389107 -0.000000 0.000000 0.000000 -0.000000 0.000000 -0.000000 0.000000 0.000000 -0.000000 -72.866063 0.414851 -24.782407 122.864776 13.542808 2.045538 35.577332 5.413031 26.652426 0.000000 -0.000002 0.000000 0.000000 -0.000002 0.000000 -0.000000 -0.000001 0.000001 13.600691 -1.246806 -4.252536 27.221840 -1.735434 -4.853002 27.221818 -1.735430 -4.852998 0.182587 5.016201 -6.711378 3.048382 9.241832 2.111621 -0.000003 0.000000 -0.000000 -0.000003 0.000000 -0.000000 -0.000003 0.000000 -0.000000 -3.962560 -0.721640 -0.451944 -30.362137 1.465271 11.807919 -4.268255 -22.076264 -9.224197 1.767933 -11.963672 36.895108 8.104714 3.038773 -5.786529 -0.331950 0.038622 0.784183 0.000004 -0.000001 0.000002 -0.954455 -7.751299 -3.747716 0.039701 0.802201 -16.419351 0.000002 -0.000000 -0.000002 1.725537 8.723420 -12.872385 -0.395816 -1.409822 -20.357898 0.000001 -0.000001 0.000002 2.557327 14.800001 -28.839009 -0.499786 -2.581906 -29.528988 -0.000002 0.000000 -0.000000 4.243507 18.602066 -32.323235 -0.671189 -5.742656 -36.682573 0.000003 0.000004 -0.000003 -0.000000 0.000001 -0.000000 -5.442463 -12.685127 -2.188824 -24.132879 -11.453280 -4.024531 6.025521 31.291573 -1.269492 13.197403 2.796806 -33.437102 -9.692975 -3.144717 -0.117471 7.108635 -17.411426 -2.824911 -0.000001 -0.000000 -0.000000 -1.177105 -0.132553 4.448992 0.137239 -1.117244 16.942475 -0.000000 0.000000 0.000002 -0.647823 -2.986997 11.594978 -0.609353 1.724606 29.430319 -0.000005 0.000003 0.000000 2.486966 -7.560674 19.984360 -0.897930 3.640130 35.633814 0.000002 -0.000001 0.000002 4.112164 -10.882519 22.632937 -1.295941 7.675091 37.754028 -0.000003 0.000001 -0.000001 0.000001 -0.000000 -0.000000 -0.000003 0.000000 0.000001 -0.000003 0.000000 0.000001 -0.000003 0.000000 0.000001 -0.000003 0.000000 0.000001 -0.000003 0.000000 0.000001 -0.000000 0.000002 0.000001 -0.000003 0.000000 0.000001 -0.000003 0.000000 0.000001 -0.000000 0.000002 0.000001 0.000000 -0.000001 0.000000 0.000000 -0.000001 0.000000 -0.000000 0.000000 0.000000 
-4.180810 111.902580 -4.652744 -14.045095 -31.079372 5.489637 0.000001 -0.000000 -0.000000 -72.417839 4.932070 15.979016 107.976405 -7.794585 -1.568095 8.157056 -0.645879 -10.161700 0.000003 0.000000 -0.000001 0.000003 0.000000 -0.000001 0.000001 0.000001 0.000001 -67.138710 1.095314 -27.804010 116.170658 16.766351 4.123352 30.764750 4.015449 29.403561 -0.000000 -0.000000 -0.000000 -0.000000 -0.000000 -0.000000 0.000001 -0.000003 0.000000 12.114433 -1.248027 -3.641292 24.258469 -1.833475 -3.752059 24.258474 -1.833469 -3.752067 -0.993975 5.155428 -5.940212 4.114458 10.651219 0.866464 0.000001 0.000000 0.000000 0.000001 0.000000 0.000000 0.000001 0.000000 0.000000 -3.791296 -1.436263 -0.448037 -31.304031 -1.509503 13.769509 -1.688384 -24.929373 -9.174185 3.244197 -11.453618 33.010396 6.999851 1.187526 -6.132343 -0.331951 0.038622 0.784178 -0.000003 -0.000002 0.000001 -1.008591 -8.578531 -3.672495 0.039701 0.802199 -16.419353 -0.000003 -0.000001 -0.000000 1.559698 7.719942 -11.133795 -0.336489 -1.244671 -18.758473 0.000001 -0.000003 0.000002 2.529935 14.709454 -26.211085 -0.424951 -2.441446 -26.922505 -0.000000 0.000000 -0.000000 4.326238 18.732137 -29.529705 -0.636118 -5.692597 -33.855530 -0.000003 -0.000000 0.000001 0.000000 0.000002 0.000000 -5.049637 -11.781889 -1.123991 -22.224100 -10.453989 -6.295221 13.779802 31.358532 -3.123655 17.942963 1.763117 -34.824686 -10.545383 -1.311719 0.212269 6.279246 -15.541440 -2.764020 -0.000001 -0.000002 -0.000002 -1.264211 1.006187 4.360225 0.137239 -1.117246 16.942479 -0.000000 0.000001 0.000002 -0.629223 -3.079392 10.396929 -0.557900 1.630908 28.231217 0.000003 0.000000 -0.000000 2.546438 -7.729399 18.119356 -0.806243 3.507345 33.753702 -0.000001 -0.000001 0.000004 4.730126 -11.788629 20.863858 -1.138170 7.458561 34.248139 -0.000001 0.000000 -0.000003 -0.000002 -0.000001 -0.000000 -0.000001 0.000001 -0.000002 -0.000001 0.000001 -0.000002 -0.000001 0.000001 -0.000002 -0.000001 0.000001 -0.000002 -0.000001 0.000001 -0.000002 -0.000001 0.000000 0.000002 -0.000001 0.000001 -0.000002 -0.000001 0.000001 -0.000002 -0.000001 0.000000 0.000002 0.000003 0.000000 -0.000001 0.000003 0.000000 -0.000001 0.000001 -0.000000 -0.000000 
